<?xml version="1.0" standalone="no"?>
<!DOCTYPE svg PUBLIC "-//W3C//DTD SVG 20010904//EN"
 "http://www.w3.org/TR/2001/REC-SVG-20010904/DTD/svg10.dtd">
<svg version="1.0" xmlns="http://www.w3.org/2000/svg"
 width="1024.000000pt" height="1024.000000pt" viewBox="0 0 1024.000000 1024.000000"
 preserveAspectRatio="xMidYMid meet">

<g transform="translate(0.000000,1024.000000) scale(0.100000,-0.100000)"
fill="#FF0000" stroke="none">
<path d="M5935 8614 c-88 -33 -229 -39 -451 -21 -463 38 -770 8 -1049 -103
-271 -108 -491 -318 -560 -537 -26 -79 -28 -83 -63 -93 -84 -22 -161 -92 -212
-190 -50 -97 -65 -363 -36 -602 22 -175 96 -457 161 -612 14 -32 20 -37 38
-32 12 4 36 9 53 12 l31 6 6 -73 c4 -41 9 -106 13 -146 l7 -72 -33 9 c-48 14
-114 -6 -145 -42 -33 -38 -31 -48 5 -48 16 0 39 -9 49 -19 16 -16 18 -29 14
-85 -4 -41 -1 -76 7 -96 17 -41 78 -93 101 -87 10 3 18 2 17 -2 -1 -3 1 -13 5
-21 9 -25 16 -140 7 -140 -4 0 -26 6 -48 14 -100 36 -189 127 -218 224 -18 61
-26 262 -10 259 5 -1 13 12 17 29 5 17 16 37 24 44 8 7 15 21 15 32 0 10 5 16
10 13 6 -3 10 3 10 14 0 15 4 19 17 14 10 -4 14 -2 10 4 -4 6 11 15 33 22 45
13 59 28 27 27 -18 -1 -23 5 -25 32 -2 18 -8 30 -13 27 -5 -4 -9 4 -10 17 0
13 -3 17 -6 10 -2 -6 -9 -10 -14 -6 -8 5 -13 -10 -10 -29 1 -5 -3 -6 -9 -2 -6
3 -7 12 -3 18 15 25 -54 -27 -98 -74 -86 -91 -128 -221 -116 -365 11 -122 55
-218 148 -319 61 -66 178 -125 275 -139 22 -3 25 -10 44 -98 24 -110 68 -224
126 -323 61 -103 90 -141 193 -247 l84 -88 1 -111 1 -112 -100 -50 c-86 -43
-114 -64 -196 -146 -88 -89 -100 -105 -160 -227 l-64 -131 -245 -116 c-135
-64 -400 -188 -590 -276 -189 -89 -368 -177 -397 -196 -154 -103 -188 -157
-343 -555 l-68 -174 29 -37 c104 -132 435 -456 565 -553 23 -17 78 -60 124
-95 183 -142 597 -367 880 -479 235 -93 553 -186 748 -217 102 -17 346 -43
442 -47 79 -4 78 -7 12 137 -25 55 -46 114 -46 132 -1 17 -4 29 -8 26 -5 -2
-8 -3 -8 -1 0 2 -9 29 -20 60 -17 50 -18 66 -10 140 6 46 13 90 17 98 9 22 9
19 27 210 9 96 22 200 27 230 6 30 17 105 24 165 8 61 18 146 24 190 10 80 49
342 56 380 4 18 12 20 105 20 l100 0 0 -30 c1 -16 10 -75 21 -130 32 -158 47
-243 59 -345 7 -52 16 -106 21 -119 5 -13 11 -49 14 -80 5 -66 19 -171 41
-294 8 -49 17 -111 20 -138 2 -27 8 -59 13 -72 5 -12 9 -25 9 -30 0 -4 3 -21
7 -37 8 -35 -3 -65 -109 -313 -42 -98 -76 -184 -76 -192 0 -11 10 -14 43 -10
23 2 103 9 177 15 471 39 933 169 1339 375 153 78 412 232 526 314 144 103
415 336 523 449 29 31 86 90 125 132 40 41 85 91 100 111 l27 36 -100 243
c-55 134 -112 264 -127 289 -36 62 -124 153 -192 198 -54 36 -451 227 -921
444 -85 39 -189 87 -230 106 l-75 34 -68 134 c-53 105 -81 147 -130 198 -70
72 -156 133 -258 183 l-69 34 0 114 0 114 85 83 c163 159 283 378 328 601 l13
61 61 17 c236 65 383 260 383 510 0 135 -41 241 -125 325 -53 54 -125 102
-125 84 0 -7 -10 -9 -26 -5 -19 5 -24 4 -18 -6 5 -10 4 -11 -7 0 -7 6 -20 12
-29 11 -10 0 -11 -2 -2 -6 6 -2 12 -11 12 -18 0 -21 -21 -29 -32 -14 -8 11 -8
10 -4 -4 3 -10 6 -23 6 -28 0 -6 5 -7 10 -4 6 3 10 0 10 -7 0 -16 49 -40 63
-31 6 3 7 1 4 -4 -8 -13 17 -36 28 -25 5 4 5 2 1 -5 -3 -6 0 -15 7 -20 28 -17
66 -80 82 -137 25 -86 17 -215 -18 -284 -15 -29 -24 -52 -20 -52 3 0 -6 -10
-21 -21 -16 -12 -25 -27 -22 -36 4 -8 1 -11 -5 -7 -6 4 -14 2 -18 -3 -3 -5
-31 -26 -61 -46 -30 -21 -48 -37 -40 -38 10 0 8 -3 -5 -8 -12 -5 -23 -4 -28 3
-6 8 -10 7 -14 -2 -11 -28 -23 3 -22 61 1 87 9 109 43 118 64 17 108 100 100
186 -6 73 3 88 56 87 22 -1 40 3 40 9 0 5 -18 27 -39 47 -44 42 -84 52 -136
34 l-35 -12 0 36 c0 19 5 86 12 148 l12 113 45 -5 c25 -2 48 -10 52 -16 9 -14
16 2 65 152 41 124 85 297 110 435 23 128 27 490 5 575 -19 78 -67 171 -118
229 -47 54 -50 63 -28 81 8 7 15 16 15 20 0 4 -30 20 -67 35 -38 15 -72 31
-76 35 -5 4 15 30 43 56 73 68 136 153 171 229 34 75 39 131 12 120 -85 -33
-175 -46 -333 -46 -175 0 -231 6 -455 47 -194 35 -188 31 -119 65 77 37 130
81 154 130 29 57 29 57 -35 33z m-615 -169 c121 -8 251 -33 520 -100 118 -30
260 -62 315 -70 55 -9 102 -19 105 -22 14 -15 -297 18 -745 79 -132 18 -208
22 -440 23 -256 0 -289 -2 -389 -23 -194 -42 -374 -115 -471 -192 -114 -89
-114 -89 -70 -37 125 151 337 258 631 317 111 23 308 39 399 34 28 -2 93 -6
145 -9z m1255 -790 c38 -80 51 -137 59 -250 6 -85 6 -85 -31 45 -8 30 -40 103
-71 163 -54 105 -55 107 -36 128 18 19 19 20 32 2 7 -10 28 -49 47 -88z
m-2749 24 c-47 -41 -82 -99 -106 -172 -19 -60 -23 -36 -6 34 21 82 48 123 99
154 61 36 66 31 13 -16z m2338 -268 c39 -75 74 -205 111 -413 45 -255 46 -416
10 -1073 l-16 -290 -40 -84 c-52 -106 -182 -242 -271 -284 -81 -38 -94 -36
-102 15 -10 61 -35 108 -70 130 -29 19 -42 19 -231 11 -254 -10 -506 -10 -760
0 -192 8 -201 8 -232 -12 -36 -22 -68 -77 -78 -134 -9 -46 -22 -47 -105 -5
-107 53 -220 181 -279 314 -27 60 -26 55 -48 384 -24 365 -24 799 0 945 35
216 108 438 154 475 36 28 182 28 313 -1 536 -115 682 -135 940 -126 253 9
507 71 655 159 17 10 31 18 32 18 1 0 9 -13 17 -29z m-1386 -2120 c78 -62 294
-107 463 -97 158 10 335 64 346 106 8 29 50 23 75 -11 24 -32 43 -150 34 -211
-10 -66 -75 -137 -169 -183 -78 -38 -168 -58 -204 -44 -35 13 -42 96 -17 186
6 23 6 23 -32 7 -29 -12 -59 -15 -119 -11 -44 2 -87 7 -96 11 -14 6 -15 -4
-11 -79 3 -59 1 -90 -8 -100 -27 -32 -158 -7 -249 46 -48 29 -109 87 -127 121
-29 56 -11 223 28 266 28 29 42 28 86 -7z m-210 -721 c76 -44 238 -112 326
-134 270 -71 568 -35 833 100 l123 62 0 -118 c0 -108 2 -119 19 -125 32 -10
92 -84 121 -149 35 -76 50 -156 50 -257 0 -270 -218 -1298 -386 -1822 -35
-110 -64 -206 -64 -213 0 -8 -4 -14 -10 -14 -5 0 -10 6 -10 13 -1 21 -19 138
-40 252 -12 61 -32 171 -45 245 -13 74 -33 189 -45 255 -12 66 -32 185 -45
264 l-25 144 44 47 c87 93 117 197 96 328 -18 116 -54 195 -116 258 -70 72
-129 98 -219 98 -96 0 -159 -29 -229 -105 -75 -81 -110 -182 -111 -324 0 -88
3 -107 27 -157 14 -31 47 -78 72 -103 26 -25 44 -49 42 -54 -4 -6 -34 -184
-89 -526 -34 -210 -107 -629 -111 -632 -2 -2 -38 98 -79 224 -138 416 -333
1264 -376 1638 -15 128 -14 281 4 348 22 84 67 166 119 217 l46 44 0 118 c0
65 3 118 6 118 3 0 36 -18 72 -40z m1691 -482 c23 -34 41 -65 41 -69 0 -13
-94 32 -105 50 -5 9 -15 36 -21 61 -6 25 -14 56 -18 70 -6 22 -3 20 28 -13 19
-21 52 -66 75 -99z m-2078 91 c-6 -13 -17 -50 -26 -82 -9 -32 -19 -56 -23 -53
-5 3 -27 -6 -50 -19 -26 -15 -42 -19 -42 -12 0 28 135 205 147 193 2 -2 -1
-14 -6 -27z m-461 -473 c0 -11 -64 -106 -68 -101 -3 2 1 11 8 20 7 8 10 15 8
15 -3 0 -88 -43 -189 -96 -101 -52 -269 -138 -374 -189 -350 -173 -492 -251
-542 -299 -41 -38 -41 -29 -1 46 56 104 97 128 718 407 63 28 185 85 270 125
153 73 170 80 170 72z m3080 -74 c58 -27 177 -82 265 -122 307 -140 554 -259
608 -293 36 -23 68 -55 95 -97 23 -34 42 -67 42 -72 0 -5 -19 7 -42 27 -23 19
-96 63 -163 97 -66 33 -205 106 -310 161 -104 55 -195 100 -201 101 -7 1 -18
7 -25 13 -8 6 -68 39 -134 73 -280 146 -305 161 -305 182 0 9 24 0 170 -70z
m-1562 43 c66 -20 102 -51 134 -117 48 -101 47 -178 -6 -256 -57 -86 -164
-121 -265 -87 -175 58 -220 266 -86 400 71 72 129 88 223 60z m1462 -61 c0 -8
4 -14 8 -14 4 0 8 -10 9 -21 2 -26 1 -25 -27 31 -17 34 -19 41 -6 31 9 -7 16
-20 16 -27z m40 -4 c0 -5 -2 -10 -4 -10 -3 0 -8 5 -11 10 -3 6 -1 10 4 10 6 0
11 -4 11 -10z m0 -95 c0 -5 -5 -3 -10 5 -5 8 -10 20 -10 25 0 6 5 3 10 -5 5
-8 10 -19 10 -25z m222 -1064 c72 -30 148 -134 148 -199 0 -8 -70 -12 -225
-14 -124 -2 -225 0 -225 3 0 14 87 135 130 180 41 43 51 49 87 49 23 0 61 -8
85 -19z"/>
<path d="M4405 6787 c-110 -29 -205 -107 -205 -167 0 -43 20 -46 87 -13 56 27
62 28 208 27 134 -1 230 -13 321 -39 14 -5 30 1 48 17 62 53 19 137 -85 165
-76 20 -311 26 -374 10z"/>
<path d="M5614 6786 c-112 -22 -167 -60 -167 -116 0 -41 29 -70 69 -70 18 0
66 7 106 16 48 11 124 17 223 18 145 1 152 0 206 -26 65 -32 72 -33 89 -13 30
37 -67 148 -158 180 -64 23 -274 29 -368 11z"/>
<path d="M4472 6489 c-61 -24 -167 -120 -177 -162 -8 -31 8 -57 35 -57 10 0
33 23 54 55 39 60 61 72 49 28 -4 -16 -7 -55 -7 -89 1 -112 70 -194 164 -194
64 0 108 31 143 99 45 89 30 225 -30 283 -62 59 -140 72 -231 37z"/>
<path d="M5710 6499 c-93 -28 -144 -145 -119 -272 26 -129 147 -196 240 -134
69 45 110 181 79 262 -9 24 -8 25 10 15 11 -6 32 -29 46 -51 31 -50 50 -58 76
-31 19 18 20 24 8 51 -7 17 -33 49 -59 70 -94 79 -202 113 -281 90z"/>
<path d="M5385 5629 c-4 -6 -5 -12 -2 -15 2 -3 7 2 10 11 7 17 1 20 -8 4z"/>
<path d="M5000 5603 c0 -19 56 -61 95 -72 88 -24 212 -2 256 45 12 13 21 26
18 28 -2 2 -31 -3 -64 -10 -91 -19 -222 -14 -287 11 -10 4 -18 3 -18 -2z"/>
<path d="M3761 6411 c-11 -7 -11 -9 0 -13 7 -2 13 -18 14 -34 0 -24 5 -30 28
-32 25 -3 27 -1 27 32 0 44 -35 68 -69 47z m34 -11 c3 -5 2 -10 -4 -10 -5 0
-13 5 -16 10 -3 6 -2 10 4 10 5 0 13 -4 16 -10z"/>
<path d="M5270 1439 c0 -5 5 -7 10 -4 6 3 10 8 10 11 0 2 -4 4 -10 4 -5 0 -10
-5 -10 -11z"/>
</g>
</svg>
